<svg width="800" height="450" viewBox="0 0 800 450" xmlns="http://www.w3.org/2000/svg">
  <defs>
    <radialGradient id="bbg" cx="30%" cy="30%" r="80%">
      <stop offset="0%" stop-color="#0E1F10"/>
      <stop offset="100%" stop-color="#060C07"/>
    </radialGradient>
    <radialGradient id="bglow" cx="50%" cy="50%" r="50%">
      <stop offset="0%" stop-color="#4CAF50" stop-opacity="0.2"/>
      <stop offset="100%" stop-color="#4CAF50" stop-opacity="0"/>
    </radialGradient>
  </defs>
  <rect width="800" height="450" fill="url(#bbg)" rx="6"/>
  <!-- Glow -->
  <ellipse cx="250" cy="200" rx="220" ry="220" fill="url(#bglow)"/>
  <ellipse cx="650" cy="350" rx="160" ry="160" fill="#D4A843" opacity="0.05"/>
  <!-- Top accent bar -->
  <rect x="0" y="0" width="800" height="3" fill="#4CAF50" opacity="0.8"/>
  <!-- Bottom bar -->
  <rect x="0" y="435" width="800" height="15" fill="#4CAF50" opacity="0.15"/>
  <!-- Left vertical accent -->
  <rect x="60" y="60" width="2" height="330" fill="#4CAF50" opacity="0.25"/>
  <!-- Tag pill -->
  <rect x="80" y="72" width="123" height="24" rx="3" fill="#4CAF50" opacity="0.2"/>
  <text x="92" y="88" font-family="Arial,sans-serif" font-size="10" fill="#4CAF50" letter-spacing="2.5">INGRÉDIENTS</text>
  <!-- Big icon -->
  <text x="400" y="165" text-anchor="middle" font-size="52">♛</text>
  <text x="400" y="168" text-anchor="middle" font-size="52" fill="#4CAF50" opacity="0.15">♛</text>
  <!-- Crown clean -->
  <text x="400" y="158" text-anchor="middle" font-size="36" fill="#4CAF50" opacity="0.8">♛</text>
  <!-- Brand -->
  <text x="400" y="188" text-anchor="middle" font-family="Georgia,serif" font-size="11" fill="#D4A843" opacity="0.7" letter-spacing="3.5" font-style="italic">Afro Queens</text>
  <!-- Divider -->
  <line x1="330" y1="200" x2="470" y2="200" stroke="#D4A843" stroke-width="0.8" opacity="0.35"/>
  <!-- Main title -->
  <text x="400" y="234" text-anchor="middle" font-family="Georgia,serif" font-size="36" fill="white" font-weight="700">Fenugrec & Graines</text>
       <text x="400" y="274" text-anchor="middle" font-family="Georgia,serif" font-size="36" fill="white" font-weight="700">de Lin</text>
  <!-- Subtitle -->
  <text x="400" y="308" text-anchor="middle" font-family="Arial,sans-serif" font-size="13" fill="#D4A843" opacity="0.8" letter-spacing="1.5">Les super-actifs de vos cheveux</text>
  <!-- Corner dots -->
  <circle cx="90"  cy="390" r="3" fill="#4CAF50" opacity="0.4"/>
  <circle cx="103" cy="390" r="2" fill="#4CAF50" opacity="0.25"/>
  <circle cx="710" cy="390" r="3" fill="#4CAF50" opacity="0.4"/>
  <circle cx="697" cy="390" r="2" fill="#4CAF50" opacity="0.25"/>
</svg>